<?xml version="1.0" standalone="no"?>
<!DOCTYPE svg PUBLIC "-//W3C//DTD SVG 1.1//EN" "http://www.w3.org/Graphics/SVG/1.1/DTD/svg11.dtd" >
<svg xmlns="http://www.w3.org/2000/svg">
<metadata>Generated by IcoMoon</metadata>
<defs>
<font id="icomoon" horiz-adv-x="1024">
<font-face units-per-em="1024" ascent="960" descent="-64" />
<missing-glyph horiz-adv-x="1024" />
<glyph unicode="&#x20;" horiz-adv-x="512" d="" />
<glyph unicode="&#xe900;" glyph-name="close" d="M509.344 960c-281.28 0-509.312-228.032-509.312-509.344 0-281.344 228.032-509.344 509.344-509.344 281.344 0 509.344 228.032 509.344 509.344s-228.032 509.344-509.376 509.344zM711.84 609.216l-157.92-158.528 156-156c10.912-12.16 10.912-30.56 0-42.688-12.192-11.328-31.104-11.328-43.328 0l-157.28 153.44-157.248-156.608c-12.288-12.32-32.256-12.32-44.576 0s-12.32 32.224 0 44.576v0l156 157.28-156.64 156.608c-12.448 12.384-12.512 32.512-0.16 45.024 0.064 0.032 0.128 0.096 0.224 0.192 11.552 12.288 30.88 12.896 43.2 1.344 0.48-0.448 0.928-0.896 1.344-1.344l157.888-156.64 157.888 157.248c12.416 12.512 32.544 12.576 45.056 0.224 0.064-0.064 0.096-0.128 0.16-0.224 12.128-12.384 12.128-32.16 0-44.544l-0.608 0.64z" />
<glyph unicode="&#xe901;" glyph-name="down" d="M12.576 712.288v0c-16.672-16.544-16.736-43.36-0.256-60.192l465.056-469.152c8.256-8.416 19.296-12.64 30.176-12.64 10.784 0 21.632 4.128 29.952 12.32 0.128 0.16 0.192 0.448 0.384 0.64 0.736 0.64 1.632 0.768 2.368 1.504l469.312 465.024c16.64 16.608 16.736 43.456 0.192 60.192-16.64 16.608-43.424 16.704-60.128 0.224l-441.536-437.568-435.424 439.424c-16.544 16.64-43.36 16.768-60.032 0.288v0l-0.064-0.064z" />
<glyph unicode="&#xe902;" glyph-name="left" d="M775.84 945.952v0c-16.544 16.672-43.36 16.736-60.192 0.256l-469.152-465.056c-8.416-8.256-12.64-19.296-12.64-30.176 0-10.784 4.128-21.632 12.32-29.952 0.16-0.128 0.448-0.192 0.64-0.384 0.64-0.736 0.768-1.632 1.504-2.368l465.024-469.312c16.608-16.64 43.456-16.736 60.192-0.192 16.608 16.64 16.704 43.424 0.224 60.128l-437.568 441.504 439.424 435.424c16.672 16.576 16.768 43.36 0.288 60.064v0l-0.064 0.064z" />
<glyph unicode="&#xe903;" glyph-name="right" d="M270.336-51.040v0c16.544-16.672 43.392-16.768 60.192-0.256l469.152 465.024c8.416 8.288 12.64 19.296 12.64 30.208 0 10.784-4.128 21.632-12.32 29.92-0.16 0.16-0.416 0.224-0.608 0.384-0.64 0.736-0.8 1.664-1.536 2.4l-464.992 469.28c-16.608 16.64-43.488 16.768-60.192 0.224-16.608-16.608-16.736-43.424-0.224-60.16l437.536-441.504-439.424-435.424c-16.64-16.544-16.768-43.392-0.256-60.064v0z" />
<glyph unicode="&#xe904;" glyph-name="up" d="M1010.464 182.624v0c16.672 16.576 16.736 43.36 0.288 60.192l-465.12 469.152c-8.256 8.416-19.296 12.64-30.144 12.64-10.784 0-21.632-4.128-29.952-12.32-0.16-0.16-0.224-0.448-0.384-0.64-0.736-0.64-1.664-0.768-2.4-1.504l-469.28-465.024c-16.64-16.64-16.736-43.424-0.224-60.192 16.64-16.64 43.424-16.704 60.16-0.256l441.504 437.536 435.392-439.424c16.608-16.672 43.328-16.736 60.064-0.288v0l0.096 0.128z" />
<glyph unicode="&#xe905;" glyph-name="choose" d="M1001.504 880.096c-20 14.4-47.904 9.856-62.368-10.144l-547.808-761.056-311.424 248.8c-19.264 15.36-47.36 12.224-62.784-7.040-15.36-19.328-12.224-47.392 7.040-62.784l348.096-278.144c19.264-15.328 47.392-12.256 62.784 7.040 0.448 0.64 0.896 1.216 1.344 1.824l575.264 799.168c14.432 20.032 9.92 47.936-10.144 62.336z" />
<glyph unicode="&#xe906;" glyph-name="man" d="M790.86 376.845c0 76.2-24.191 148.677-68.932 208.675l108.662 108.662v-84.745c0-14.14 5.729-26.938 14.996-36.204 9.263-9.265 22.066-14.996 36.204-14.996 28.276 0 51.2 22.922 51.2 51.2v204.211c0.11 1.368 0.182 2.746 0.182 4.141 0 14.188-5.773 27.026-15.095 36.3-9.272 9.315-22.106 15.081-36.287 15.082-1.395 0-2.775-0.072-4.142-0.182h-204.211c-28.276 0-51.2-22.924-51.2-51.2 0-14.139 5.732-26.939 14.996-36.205 9.266-9.265 22.065-14.995 36.204-14.995h84.746l-108.662-108.663c-59.997 44.739-132.477 68.931-208.677 68.929-93.494 0-181.389-36.406-247.498-102.516-66.108-66.104-102.516-154.002-102.516-247.496 0.001-93.492 36.408-181.388 102.518-247.497 66.108-66.107 154.004-102.515 247.497-102.515 93.491 0 181.39 36.407 247.497 102.515 66.112 66.109 102.518 154.007 102.519 247.5zM440.844 129.228c-66.14 0.003-128.321 25.757-175.090 72.527-46.767 46.767-72.524 108.947-72.525 175.087 0 66.143 25.756 128.323 72.524 175.091s108.948 72.524 175.091 72.525c66.14 0 128.324-25.757 175.090-72.525 46.769-46.769 72.525-108.948 72.525-175.089 0-66.143-25.757-128.323-72.525-175.092-46.767-46.767-108.95-72.525-175.090-72.525z" />
<glyph unicode="&#xe907;" glyph-name="woman" d="M870.7 806.7c-66.107 66.109-154.004 102.518-247.497 102.519-93.492 0-181.389-36.408-247.497-102.516-66.111-66.109-102.516-154.006-102.516-247.5-0.001-76.2 24.191-148.678 68.931-208.676l-60.205-60.204-143.73 143.73c-19.995 19.995-52.412 19.995-72.407 0s-19.995-52.412 0-72.407l143.73-143.73-55.756-55.756c-19.994-19.994-19.994-52.412 0-72.406 19.996-19.996 52.413-19.995 72.408 0l55.754 55.754 143.731-143.73c19.994-19.995 52.411-19.995 72.406 0s19.996 52.412 0 72.407l-143.73 143.729 60.205 60.204c59.999-44.739 132.476-68.932 208.676-68.932 93.492 0 181.388 36.408 247.497 102.518s102.518 154.006 102.518 247.498c0 93.492-36.41 181.39-102.518 247.497zM798.292 384.113c-46.767-46.767-108.95-72.525-175.090-72.525s-128.321 25.757-175.090 72.525c-46.769 46.767-72.525 108.95-72.525 175.090 0.001 66.143 25.756 128.324 72.525 175.091 46.767 46.769 108.95 72.525 175.090 72.525s128.323-25.757 175.090-72.526c46.767-46.767 72.525-108.948 72.525-175.089s-25.755-128.323-72.525-175.091z" />
<glyph unicode="&#xe908;" glyph-name="man1" d="M263.808 696.352c0-137.216 111.136-248.32 248.352-248.32 137.28 0 248.352 111.136 248.352 248.32 0 137.216-111.104 248.32-248.352 248.32-137.216 0-248.352-111.104-248.352-248.32zM67.2 76.192v0zM67.2 77.76v0zM67.2 78.112c0 0 0-0.16 0 0zM957.056 75.008v0zM957.056 75.552v0zM67.2 75.008v0zM737.536 395.328l-20.416 0.192c-7.072 0-18.016-2.816-24.32-6.016 0 0-16.256-9.472-31.232-15.616-44.512-19.296-95.072-30.176-148.928-30.176-53.504 0-104.096 10.752-148.384 29.824-15.040 6.336-31.712 16-31.712 16-6.272 3.488-17.088 6.24-24.32 6.016l-20.192-0.128c-81.344-10.88-166.784-82.944-191.296-160.896 0 0-26.080-52.672-29.824-156.288-0.192-13.504 10.592-30.56 24.512-37.824 0 0 138.592-88.992 420.256-88.992 281.856 0 420.288 88.992 420.288 88.992 13.696 7.424 24.736 26.272 24.512 38.144-3.488 103.232-28.8 153.76-28.8 153.76-22.336 78.24-108.96 151.008-190.144 163.008zM957.056 77.76v0zM957.056 76.384v0z" />
<glyph unicode="&#xe909;" glyph-name="man2" d="M186.848 682.656c0-124.128 95.648-224.64 213.792-224.64 118.112 0 213.76 100.512 213.76 224.64 0 124.16-95.648 224.672-213.76 224.672-118.144-0.032-213.792-100.576-213.792-224.672zM17.568 121.632v0zM17.568 123.072v0zM17.568 123.36c0 0 0-0.16 0 0zM783.712 120.512v0zM783.712 121.12v0zM17.568 120.512v0zM594.624 410.304l-17.536 0.192c-6.048 0-15.488-2.56-20.928-5.504 0 0-14.016-8.576-26.848-14.176-38.336-17.376-81.856-27.36-128.224-27.36-46.048 0-89.632 9.76-127.744 27.008-12.992 5.888-27.328 14.56-27.328 14.56-5.376 3.136-14.656 5.696-20.928 5.504l-17.376-0.192c-70.016-9.824-143.616-75.072-164.672-145.632 0 0-22.496-47.616-25.664-141.312-0.16-12.192 9.152-27.616 21.152-34.176 0 0 119.296-80.512 361.792-80.512 242.624 0 361.76 80.512 361.76 80.512 11.808 6.752 21.376 23.744 21.152 34.496-3.040 93.376-24.928 139.136-24.928 139.136-19.2 70.784-93.728 136.576-163.68 147.456zM783.712 123.072v0zM783.712 121.824v0zM1024 378.624c0-14.784-12-26.72-26.784-26.72h-213.312c-14.784 0-26.688 11.936-26.688 26.72v0c0 14.848 11.904 26.816 26.688 26.816h213.312c14.784-0.032 26.784-12.032 26.784-26.816v0zM1024 506.624c0-14.784-12-26.72-26.784-26.72h-309.312c-14.784 0-26.688 11.936-26.688 26.72v0c0 14.848 11.904 26.816 26.688 26.816h309.312c14.784-0.032 26.784-12.032 26.784-26.816v0zM1024 634.624c0-14.784-12-26.72-26.784-26.72h-245.312c-14.784 0-26.688 11.936-26.688 26.72v0c0 14.848 11.904 26.816 26.688 26.816h245.312c14.784-0.032 26.784-12.032 26.784-26.816v0z" />
<glyph unicode="&#xe90a;" glyph-name="Prompt" d="M527.521 911.441c-246.732 0-446.746-200.006-446.746-446.727s200.015-446.727 446.746-446.727 446.746 200.006 446.746 446.727-200.015 446.727-446.746 446.727zM527.521 169.185c-31.453 0-56.95 25.497-56.95 56.948s25.498 56.948 56.95 56.948 56.95-25.497 56.95-56.948-25.498-56.948-56.95-56.948zM584.472 410.812c0-31.451-25.498-56.948-56.95-56.948s-56.95 25.497-56.95 56.948v243.050c0 31.45 25.498 56.947 56.95 56.947s56.95-25.497 56.95-56.948v-243.049z" />
<glyph unicode="&#xe90b;" glyph-name="sort-down" d="M84.832 709.696l427.136 1.28 429.312-3.776c26.080 0 49.056-1.408 56.672-7.296 18.4-14.080 16.416-42.848 0-59.136l-454.4-497.568c-8.672-8.704-20.224-12.448-31.616-11.872-11.328-0.576-22.88 3.168-31.584 11.872l-454.432 497.6c-16.352 16.288-18.112 44.768 0 59.104 8.384 6.656 23.104 9.792 58.912 9.792v0z" />
<glyph unicode="&#xe90c;" glyph-name="sort-up" d="M939.136 196.576l-427.136-1.28-429.312 3.776c-26.112 0-49.056 1.408-56.672 7.296-18.4 14.080-16.384 42.848 0 59.136l454.4 497.6c8.672 8.704 20.224 12.448 31.616 11.872 11.328 0.576 22.88-3.168 31.584-11.872l454.4-497.6c16.352-16.288 18.112-44.768 0-59.104-8.352-6.688-23.072-9.824-58.88-9.824v0z" />
<glyph unicode="&#xe90d;" glyph-name="check" d="M847.776 875.712h-671.552c-61.568 0-111.936-50.368-111.936-111.936v-671.584c0-61.568 50.368-111.872 111.936-111.872h671.552c61.568 0 111.936 50.304 111.936 111.872v671.584c0 61.568-50.368 111.936-111.936 111.936zM790.528 564.48l-337.408-339.968c-1.024-2.016-2.56-3.552-4.096-5.12-13.312-13.312-34.816-13.312-48.128 0l-167.936 167.936c0 0.064-0.032 0.064-0.032 0.064-13.28 13.312-13.248 34.816 0.032 48.064 0 0 0.032 0.032 0.064 0.032 13.28 13.28 34.816 13.248 48.064-0.032l143.36-143.36 318.464 320c13.312 13.312 34.848 13.312 47.616 0.512 13.312-13.312 13.312-34.816 0-48.128z" />
<glyph unicode="&#xe90e;" glyph-name="check-empty" d="M847.776 895.712h-671.552c-61.568 0-111.936-50.368-111.936-111.936v-671.584c0-61.568 50.368-111.872 111.936-111.872h671.552c61.568 0 111.936 50.304 111.936 111.872v671.584c0 61.568-50.368 111.936-111.936 111.936zM914.944 112.192c0-36.928-30.208-67.136-67.168-67.136h-671.552c-36.928 0-67.168 30.176-67.168 67.136v671.584c0 36.928 30.208 67.168 67.168 67.168h671.552c36.928 0 67.168-30.208 67.168-67.168v-671.584z" />
<glyph unicode="&#xe90f;" glyph-name="circle-check" d="M512 950.272c-276.48 0-501.76-225.28-501.76-502.272s225.28-502.24 501.76-502.24c276.512 0 501.76 225.248 501.76 502.24s-225.248 502.272-501.76 502.272zM790.528 596.48l-337.408-339.968c-1.024-2.016-2.56-3.552-4.096-5.12-13.312-13.312-34.816-13.312-48.128 0l-167.936 167.936c0 0.032-0.032 0.064-0.032 0.064-13.28 13.312-13.248 34.816 0.032 48.064 0 0 0.032 0.032 0.064 0.032 13.28 13.28 34.816 13.248 48.064-0.032l143.36-143.36 318.464 320c13.312 13.312 34.848 13.312 47.616 0.512 13.312-13.312 13.312-34.816 0-48.128z" />
<glyph unicode="&#xe910;" glyph-name="circle-thin" d="M512-54.24c-276.48 0-501.76 225.248-501.76 502.24s225.28 502.272 501.76 502.272c276.512 0 501.76-225.28 501.76-502.272s-225.248-502.24-501.76-502.24zM512 896c-246.784 0-447.488-201.216-447.488-448s200.704-448 447.488-448 447.488 201.216 447.488 448-200.704 448-447.488 448z" />
<glyph unicode="&#xe911;" glyph-name="dot-circle" d="M512-54.24c-276.48 0-501.76 225.248-501.76 502.24s225.28 502.272 501.76 502.272c276.512 0 501.76-225.28 501.76-502.272s-225.248-502.24-501.76-502.24zM512 896c-246.784 0-447.488-201.216-447.488-448s200.704-448 447.488-448 447.488 201.216 447.488 448-200.704 448-447.488 448zM512 186.976c-143.712 0-260.8 117.056-260.8 261.024s117.088 261.056 260.8 261.056c143.712 0 260.768-117.088 260.768-261.056s-117.056-261.024-260.768-261.024z" />
<glyph unicode="&#xe912;" glyph-name="download" d="M611.584 610.848c0-55.008-44.64-99.584-99.584-99.584v0c-55.008 0-99.584 44.608-99.584 99.584v243.648c0 54.976 44.608 99.584 99.584 99.584v0c54.944 0 99.584-44.608 99.584-99.584v-243.648zM89.664-58.656c-38.336 0-69.376 31.072-69.376 69.408v0c0 38.368 31.072 69.408 69.376 69.408h844.608c38.368 0 69.44-31.040 69.44-69.408v0c0-38.336-31.072-69.408-69.44-69.408h-844.608zM80.96 658.848h855.232l-424.192-538.944z" />
<glyph unicode="&#xe913;" glyph-name="eyes" d="M512 768c-211.81 0-390.5-135-448-320 57.5-185 236.19-320 448-320s390.5 135 448 320c-57.5 185-236.19 320-448 320zM512 256c-106.060 0-192 86-192 192s85.94 192 192 192 192-86 192-192-85.94-192-192-192zM512 576c-13.060 0-25.44-2.54-37.38-6.19 21.94-10.15 37.38-32.040 37.38-57.81 0-0.066 0-0.144 0-0.222 0-35.219-28.551-63.77-63.77-63.77-25.642 0-47.749 15.134-57.876 36.958l-0.164 0.394c-3.63-11.89-6.19-24.27-6.19-37.36 0-70.692 57.308-128 128-128s128 57.308 128 128c0 70.692-57.308 128-128 128v0z" />
</font>
</defs>
</svg>
